<mxfile host="app.diagrams.net" modified="2024-04-24T02:42:43.796Z" agent="Mozilla/5.0 (Windows NT 10.0; Win64; x64) AppleWebKit/537.36 (KHTML, like Gecko) Chrome/124.0.0.0 Safari/537.36 Edg/124.0.0.0" etag="WzuyPwgvBkpMi9F_dUpH" version="24.2.8" type="device">
  <diagram name="페이지-1" id="guaEVYsh_E22QLHwIQvN">
    <mxGraphModel dx="1122" dy="818" grid="0" gridSize="10" guides="1" tooltips="1" connect="1" arrows="1" fold="1" page="0" pageScale="1" pageWidth="827" pageHeight="1169" math="0" shadow="0">
      <root>
        <mxCell id="0" />
        <mxCell id="1" parent="0" />
        <mxCell id="OOCHV7wDrw1hriu58t99-1" value="Entity" style="whiteSpace=wrap;html=1;align=center;" vertex="1" parent="1">
          <mxGeometry x="8" y="-5" width="100" height="40" as="geometry" />
        </mxCell>
        <mxCell id="OOCHV7wDrw1hriu58t99-2" value="&lt;b&gt;개체&lt;/b&gt;(Entity) : 세상의 사물이나 개념을 나타낸 것" style="text;html=1;align=left;verticalAlign=middle;resizable=0;points=[];autosize=1;strokeColor=none;fillColor=none;fontSize=16;" vertex="1" parent="1">
          <mxGeometry x="131" y="-0.5" width="356" height="31" as="geometry" />
        </mxCell>
        <mxCell id="OOCHV7wDrw1hriu58t99-3" value="Attribute" style="ellipse;whiteSpace=wrap;html=1;align=center;" vertex="1" parent="1">
          <mxGeometry x="8" y="65" width="100" height="40" as="geometry" />
        </mxCell>
        <mxCell id="OOCHV7wDrw1hriu58t99-5" value="&lt;b&gt;속성&lt;/b&gt;(Attribute) : 개체가 가지고 있는 특성" style="text;html=1;align=left;verticalAlign=middle;resizable=0;points=[];autosize=1;strokeColor=none;fillColor=none;fontSize=16;" vertex="1" parent="1">
          <mxGeometry x="131" y="69.5" width="307" height="31" as="geometry" />
        </mxCell>
        <mxCell id="OOCHV7wDrw1hriu58t99-6" value="Relationship" style="shape=rhombus;perimeter=rhombusPerimeter;whiteSpace=wrap;html=1;align=center;" vertex="1" parent="1">
          <mxGeometry x="-2" y="137" width="120" height="60" as="geometry" />
        </mxCell>
        <mxCell id="OOCHV7wDrw1hriu58t99-7" value="&lt;b&gt;관계&lt;/b&gt;(Relationship) : 개체와 개체 간의 관계" style="text;html=1;align=left;verticalAlign=middle;resizable=0;points=[];autosize=1;strokeColor=none;fillColor=none;fontSize=16;" vertex="1" parent="1">
          <mxGeometry x="129" y="151.5" width="319" height="31" as="geometry" />
        </mxCell>
        <mxCell id="OOCHV7wDrw1hriu58t99-8" value="&lt;b&gt;ER모델&lt;/b&gt;" style="text;html=1;align=center;verticalAlign=middle;resizable=0;points=[];autosize=1;strokeColor=none;fillColor=none;fontSize=16;" vertex="1" parent="1">
          <mxGeometry x="26" y="-68" width="72" height="31" as="geometry" />
        </mxCell>
        <mxCell id="OOCHV7wDrw1hriu58t99-28" style="edgeStyle=none;curved=1;rounded=0;orthogonalLoop=1;jettySize=auto;html=1;entryX=0;entryY=0.5;entryDx=0;entryDy=0;fontSize=12;startSize=8;endSize=8;startArrow=none;startFill=0;endArrow=none;endFill=0;" edge="1" parent="1" source="OOCHV7wDrw1hriu58t99-9" target="OOCHV7wDrw1hriu58t99-27">
          <mxGeometry relative="1" as="geometry" />
        </mxCell>
        <mxCell id="OOCHV7wDrw1hriu58t99-9" value="직원" style="whiteSpace=wrap;html=1;align=center;" vertex="1" parent="1">
          <mxGeometry x="46" y="356" width="100" height="40" as="geometry" />
        </mxCell>
        <mxCell id="OOCHV7wDrw1hriu58t99-10" value="&lt;b&gt;ER 다이어그램&lt;/b&gt;" style="text;html=1;align=center;verticalAlign=middle;resizable=0;points=[];autosize=1;strokeColor=none;fillColor=none;fontSize=16;" vertex="1" parent="1">
          <mxGeometry x="17" y="233" width="125" height="31" as="geometry" />
        </mxCell>
        <mxCell id="OOCHV7wDrw1hriu58t99-11" value="직원번호" style="ellipse;whiteSpace=wrap;html=1;align=center;" vertex="1" parent="1">
          <mxGeometry x="-19" y="419" width="100" height="40" as="geometry" />
        </mxCell>
        <mxCell id="OOCHV7wDrw1hriu58t99-12" value="이름" style="ellipse;whiteSpace=wrap;html=1;align=center;" vertex="1" parent="1">
          <mxGeometry x="75" y="433" width="100" height="40" as="geometry" />
        </mxCell>
        <mxCell id="OOCHV7wDrw1hriu58t99-13" value="직급" style="ellipse;whiteSpace=wrap;html=1;align=center;" vertex="1" parent="1">
          <mxGeometry x="188" y="426" width="100" height="40" as="geometry" />
        </mxCell>
        <mxCell id="OOCHV7wDrw1hriu58t99-14" value="전화번호" style="ellipse;whiteSpace=wrap;html=1;align=center;" vertex="1" parent="1">
          <mxGeometry x="133" y="284" width="100" height="40" as="geometry" />
        </mxCell>
        <mxCell id="OOCHV7wDrw1hriu58t99-16" value="" style="endArrow=none;html=1;rounded=0;fontSize=12;startSize=8;endSize=8;curved=1;exitX=0.5;exitY=0;exitDx=0;exitDy=0;entryX=0;entryY=0.5;entryDx=0;entryDy=0;startArrow=none;startFill=0;endFill=0;" edge="1" parent="1">
          <mxGeometry relative="1" as="geometry">
            <mxPoint x="94.31" y="356" as="sourcePoint" />
            <mxPoint x="146" y="318" as="targetPoint" />
          </mxGeometry>
        </mxCell>
        <mxCell id="OOCHV7wDrw1hriu58t99-17" value="" style="endArrow=none;html=1;rounded=0;fontSize=12;startSize=8;endSize=8;curved=1;exitX=1;exitY=1;exitDx=0;exitDy=0;entryX=0.046;entryY=0.219;entryDx=0;entryDy=0;entryPerimeter=0;startArrow=none;startFill=0;endFill=0;" edge="1" parent="1" source="OOCHV7wDrw1hriu58t99-9" target="OOCHV7wDrw1hriu58t99-13">
          <mxGeometry relative="1" as="geometry">
            <mxPoint x="126" y="391" as="sourcePoint" />
            <mxPoint x="202.69" y="377" as="targetPoint" />
          </mxGeometry>
        </mxCell>
        <mxCell id="OOCHV7wDrw1hriu58t99-18" value="" style="endArrow=none;html=1;rounded=0;fontSize=12;startSize=8;endSize=8;curved=1;entryX=0.75;entryY=1;entryDx=0;entryDy=0;exitX=0.5;exitY=0;exitDx=0;exitDy=0;startArrow=none;startFill=0;endFill=0;" edge="1" parent="1" source="OOCHV7wDrw1hriu58t99-12" target="OOCHV7wDrw1hriu58t99-9">
          <mxGeometry relative="1" as="geometry">
            <mxPoint x="142" y="409" as="sourcePoint" />
            <mxPoint x="186" y="398" as="targetPoint" />
          </mxGeometry>
        </mxCell>
        <mxCell id="OOCHV7wDrw1hriu58t99-21" value="" style="endArrow=none;html=1;rounded=0;fontSize=12;startSize=8;endSize=8;curved=1;exitX=0.5;exitY=0;exitDx=0;exitDy=0;entryX=0.34;entryY=1.044;entryDx=0;entryDy=0;entryPerimeter=0;startArrow=none;startFill=0;endFill=0;" edge="1" parent="1" source="OOCHV7wDrw1hriu58t99-11" target="OOCHV7wDrw1hriu58t99-9">
          <mxGeometry relative="1" as="geometry">
            <mxPoint x="21" y="410" as="sourcePoint" />
            <mxPoint x="97.69" y="396" as="targetPoint" />
          </mxGeometry>
        </mxCell>
        <mxCell id="OOCHV7wDrw1hriu58t99-24" style="edgeStyle=none;curved=1;rounded=0;orthogonalLoop=1;jettySize=auto;html=1;fontSize=12;startSize=8;endSize=8;startArrow=none;startFill=0;endArrow=none;endFill=0;" edge="1" parent="1" source="OOCHV7wDrw1hriu58t99-22" target="OOCHV7wDrw1hriu58t99-23">
          <mxGeometry relative="1" as="geometry" />
        </mxCell>
        <mxCell id="OOCHV7wDrw1hriu58t99-26" style="edgeStyle=none;curved=1;rounded=0;orthogonalLoop=1;jettySize=auto;html=1;fontSize=12;startSize=8;endSize=8;startArrow=none;startFill=0;endArrow=none;endFill=0;" edge="1" parent="1" source="OOCHV7wDrw1hriu58t99-22" target="OOCHV7wDrw1hriu58t99-25">
          <mxGeometry relative="1" as="geometry" />
        </mxCell>
        <mxCell id="OOCHV7wDrw1hriu58t99-29" style="edgeStyle=none;curved=1;rounded=0;orthogonalLoop=1;jettySize=auto;html=1;entryX=1;entryY=0.5;entryDx=0;entryDy=0;fontSize=12;startSize=8;endSize=8;startArrow=none;startFill=0;endArrow=none;endFill=0;" edge="1" parent="1" source="OOCHV7wDrw1hriu58t99-22" target="OOCHV7wDrw1hriu58t99-27">
          <mxGeometry relative="1" as="geometry" />
        </mxCell>
        <mxCell id="OOCHV7wDrw1hriu58t99-22" value="부서" style="whiteSpace=wrap;html=1;align=center;" vertex="1" parent="1">
          <mxGeometry x="425" y="354" width="100" height="40" as="geometry" />
        </mxCell>
        <mxCell id="OOCHV7wDrw1hriu58t99-23" value="부서번호" style="ellipse;whiteSpace=wrap;html=1;align=center;" vertex="1" parent="1">
          <mxGeometry x="384" y="426" width="100" height="40" as="geometry" />
        </mxCell>
        <mxCell id="OOCHV7wDrw1hriu58t99-25" value="부서명" style="ellipse;whiteSpace=wrap;html=1;align=center;" vertex="1" parent="1">
          <mxGeometry x="488" y="426" width="100" height="40" as="geometry" />
        </mxCell>
        <mxCell id="OOCHV7wDrw1hriu58t99-27" value="소속" style="shape=rhombus;perimeter=rhombusPerimeter;whiteSpace=wrap;html=1;align=center;" vertex="1" parent="1">
          <mxGeometry x="233" y="344" width="120" height="60" as="geometry" />
        </mxCell>
      </root>
    </mxGraphModel>
  </diagram>
</mxfile>
